<?xml version="1.0" encoding="utf-8"?>
<!-- Generator: Adobe Illustrator 18.1.1, SVG Export Plug-In . SVG Version: 6.00 Build 0)  -->
<svg version="1.1" id="Layer_1" xmlns="http://www.w3.org/2000/svg" xmlns:xlink="http://www.w3.org/1999/xlink" x="0px" y="0px"
	 width="100px" height="100px" viewBox="-561 347 100 100" enable-background="new -561 347 100 100" xml:space="preserve">
<g>
	<path fill="#512200" stroke="#512200" stroke-miterlimit="10" d="M-477.8,389.5c1.1,4.1,1.7,8.6,1.7,13.1c0,0.5,0,1.1,0,1.6
		l5.4,2.1l4.5-3.7l3.4,4l-6.7,5.5l-7-2.8c-0.8,6.2-2.7,11.9-5.4,16.8l1-1.3l5.2,3l5-3l2.8,4.5l-7.4,4.5l-8.2-4.8
		c-6.4,9.9-16.3,16.3-27.5,16.3c-11.1,0-21-6.4-27.4-16.3l-8.1,4.7l-7.4-4.5l2.8-4.5l5,3l5.2-3l0.4,0.5c-2.5-4.8-4.2-10.2-4.9-16
		l-6.7,2.7l-6.7-5.5l3.4-4l4.5,3.7l5.2-2c0-0.6,0-1.1,0-1.7c0-4.6,0.6-9,1.7-13.1l-8.7-0.3l-3.8-7.8l4.8-2.3l2.5,5.2l6,0.3l0.1,1.7
		c3.6-10.7,10.7-19.2,19.5-23.5c0.2-3.3,2.9-5.9,6.3-5.9h14.6c3.5,0,6.3,2.8,6.3,6.2c0,0.1,0,0.3,0,0.4c8.3,4.6,14.9,13,18.2,23.3
		l0.1-2.3l6-0.3l2.5-5.2l4.8,2.3l-3.8,7.8L-477.8,389.5z"/>
	<polygon fill="#512200" stroke="#512200" stroke-miterlimit="10" points="-493.4,351.5 -494.1,353.3 -495.2,353.8 -497.4,354.4 
		-499.3,355.5 -501.9,357 -501.9,355.5 -498.9,353.4 -496.8,352.8 -494.9,351.5 -493.8,349.3 -491.7,348.6 -492.3,350.6 	"/>
	<polygon fill="#512200" stroke="#512200" stroke-miterlimit="10" points="-523.4,354.4 -525.6,353.8 -526.6,353.3 -527.3,351.5 
		-528.5,350.6 -529.1,348.6 -527,349.3 -525.9,351.5 -524,352.8 -521.8,353.4 -518.9,355.5 -518.9,357 -521.5,355.5 	"/>
</g>
</svg>
